<svg
    xmlns="http://www.w3.org/2000/svg"
    viewBox="0 0 128 128"
    id="vector">
    <path
        id="path"
        d="M 0 0 L 128 0 L 128 128 L 0 128 Z"
        fill="#ff8a80"/>
    <path
        id="path_1"
        d="M 36.3 94.8 C 42.7 102.1 52.5 106.9 63.6 107.2 C 74.3 106.9 83.9 102.5 90.3 95.6 L 90.5 95.7 C 73.5 82.4 77.6 72.3 82 67.1 C 83.3 65.9 84.8 64.6 86.4 63.2 L 99.5 52.2 C 101 51 102.1 49.2 102.4 47.1 C 103 42.7 99.9 38.7 95.5 38 C 94 37.8 92.5 38 91.2 38.6 C 90.9 37.3 90.8 35.9 89.6 35.1 C 88.2 34.2 86.8 33.4 85.4 32.6 C 78.3 28.7 70.5 26 62.4 24.7 C 57 23.8 51.4 23.5 46.3 25.4 C 43 26.6 40.2 28.6 37.6 31 C 36.3 32.2 35.1 33.4 33.9 34.7 L 32.1 36.6 C 31.8 36.9 31.6 37.2 31.3 37.4 C 31.2 37.5 31.1 37.4 30.9 37.6 C 31 37.8 31 38.1 31 38.2 C 30 37.9 28.9 37.8 27.8 38 C 23.4 38.6 20.3 42.7 20.9 47.1 C 21.2 49.2 22.2 50.9 23.7 52.2 L 34.7 61.5 C 36.5 63 38 65.3 39.3 67.2 C 40.8 69.5 42.1 72.1 42.8 74.8 C 44.5 81.6 42 88.2 37.4 93.2 C 36.9 93.8 36.3 94.2 36 94.9 C 35.8 95.5 35.6 96.2 35.4 96.9 C 35 98.4 34.9 100 35.1 101.5 C 35.5 104.6 36.9 107.6 39.2 109.7 C 42.5 112.7 47.2 113.7 51.6 114.2 C 56.8 114.8 62.1 114.9 67.3 114.4 C 71.8 114 76.4 113.2 80.3 111 C 85.9 107.9 89.9 102.1 90.8 95.8 M 76.4 46 C 77.3 46 78 46.7 78 47.6 C 78 48.5 77.3 49.2 76.4 49.2 C 75.5 49.2 74.8 48.5 74.8 47.6 C 74.7 46.7 75.5 46 76.4 46 Z M 50.7 46 C 51.6 46 52.3 46.7 52.3 47.6 C 52.3 48.5 51.6 49.2 50.7 49.2 C 49.8 49.2 49.1 48.5 49.1 47.6 C 49 46.7 49.8 46 50.7 46 Z"
        fill="#ffe0b2"/>
    <path
        id="path_2"
        d="M 105.3 106.1 C 104.4 104.8 104 104.2 104 104.2 L 103.8 103.9 C 103.2 103 102.6 102.2 101.9 101.5 C 98.7 98 94.6 96.1 90.5 95.8 C 90.5 95.8 90.6 95.8 90.6 95.9 L 90.4 95.8 C 84 102.7 74.4 107.1 63.7 107.4 C 52.5 107.1 42.6 102.3 36.2 94.8 C 36.1 95 36 95.2 36 95.3 C 32.9 96.2 30 98 27.6 100.7 L 27.4 100.9 C 27.4 100.9 26.9 101.5 25.9 102.6 C 25 103.7 23.7 105.2 22.2 107.1 C 19.1 111 15 116.6 10.5 123.7 C 9.6 125.1 8.8 126.5 7.9 128 L 117.5 128 C 114.1 120.9 111 115.2 108.6 111.1 C 107.1 108.9 106 107.3 105.3 106.1 Z"
        fill="#e0f7fa"/>
    <path
        id="path_3"
        d="M 76.3 47.5 M 74.3 47.5 C 74.3 46.97 74.511 46.461 74.886 46.086 C 75.261 45.711 75.77 45.5 76.3 45.5 C 76.83 45.5 77.339 45.711 77.714 46.086 C 78.089 46.461 78.3 46.97 78.3 47.5 C 78.3 48.03 78.089 48.539 77.714 48.914 C 77.339 49.289 76.83 49.5 76.3 49.5 C 75.77 49.5 75.261 49.289 74.886 48.914 C 74.511 48.539 74.3 48.03 74.3 47.5"
        fill="#444444"/>
    <path
        id="path_4"
        d="M 50.7 47.6 M 48.7 47.6 C 48.7 47.07 48.911 46.561 49.286 46.186 C 49.661 45.811 50.17 45.6 50.7 45.6 C 51.23 45.6 51.739 45.811 52.114 46.186 C 52.489 46.561 52.7 47.07 52.7 47.6 C 52.7 48.13 52.489 48.639 52.114 49.014 C 51.739 49.389 51.23 49.6 50.7 49.6 C 50.17 49.6 49.661 49.389 49.286 49.014 C 48.911 48.639 48.7 48.13 48.7 47.6"
        fill="#444444"/>
    <path
        id="path_5"
        d="M 48.1 27.4 C 52.6 33.3 63.6 39.5 90.5 35.8 C 88.3 28.9 83.7 23.2 77.9 19.4 C 95.1 20.9 92 10 92 10 C 90.6 15.5 80.9 14.4 80.9 14.4 L 62.1 14.4 C 60.4 14.3 58.7 14.4 56.9 14.7 C 44.1 16.5 34.3 25.8 31.2 37.6 C 41.8 35.7 46.5 30 48.1 27.4 Z"
        fill="#444444"/>
</svg>
